<svg id="Layer_1" data-name="Layer 1" xmlns="http://www.w3.org/2000/svg" viewBox="0 0 202.82 325.56"><defs><style>.cls-1{fill:none;stroke:#d0d0cf;stroke-miterlimit:10;stroke-width:3px;}</style></defs><title>alabamastategraphic-grey</title><path class="cls-1" d="M407.42,30.87S424.93,167.41,427,175.46s10.35,11.54,13.25,14.19-.67,4.32-4,11.53-6.58,21-6.58,21a44.75,44.75,0,0,1,.89,15.6l-9,58.2-124.07,2.84L295.14,314c-.84,5.39,7.21,3.33,6.21,9.8s-3.76,17.08-3.76,17.08l3.65,5-13.94,4.46L266,352.54l12.45-9.1-3.3-7.14s-6.71-6.56-9.54-2.58-3.83,10.44-3.83,10.44l-18.49-1.76s-4.17-51.42.27-87.16,26-203.49,26-203.49-5.8-5.31-9.77-8.14-2.13-13.06-2.13-13.06l149.75.37" transform="translate(-239.99 -29.05)"/></svg>