<svg id="Layer_1" data-name="Layer 1" xmlns="http://www.w3.org/2000/svg" xmlns:xlink="http://www.w3.org/1999/xlink" viewBox="0 0 1461.4 1157.01"><defs><style>.cls-1,.cls-4,.cls-5{fill:none;}.cls-2{clip-path:url(#clip-path);}.cls-3{fill:#fff;}.cls-4,.cls-5{stroke:#fff;}.cls-4{stroke-width:2px;}.cls-5{stroke-width:4px;}</style><clipPath id="clip-path" transform="translate(-137.3 -26.8)"><rect class="cls-1" width="1762.91" height="1212"/></clipPath></defs><title>pci_logo-lineart</title><g class="cls-2"><path class="cls-3" d="M712.53,561.65c0,2.28-.61,4.56-3.08,4.56-2,0-3-3.49-3.7-5.1-5.92-12.87-13.57-19.17-25.54-19.17-23.81,0-35.16,22.8-35.16,44,0,29.24,16.29,43.72,34.42,43.72,10.86,0,18.38-4.69,26-13,1.24-1.34,2.59-3.62,4.69-3.62a3,3,0,0,1,2.71,3.22c0,4.43-9.25,12.07-12.33,14.08-6.66,4.56-12.83,7-23.07,7-24.68,0-45-19.85-45-47.34,0-26.29,14.31-54.85,48.23-54.85,10.49,0,16.17,2.15,23.57,6.3,6.91,3.89,8.26,6.71,8.26,10.6Z" transform="translate(-137.3 -26.8)"/><path class="cls-3" d="M743.51,552.67c0-7.25-.49-8-2.84-8.72-3.08-.94-4.81-1.34-4.81-3.76,0-3,2.35-3.08,4.44-3.08h38.37c15.8,0,27.64,7,27.64,23.07,0,12.87-10.12,20.92-20.36,25.74,8.52,10.6,14.19,22.94,19.49,35.54,1.73,4.16,2.59,6,6.42,7.91,1.48.67,3.21,1.08,3.21,3.22,0,2.68-2.47,2.68-4.2,2.68H792.61c-1.85,0-4.93,0-4.93-2.81,0-4.16,6.29-2.68,6.29-7.65,0-7.37-13.82-29.36-19.37-35.53a146.2,146.2,0,0,1-20,3.88v32.73c0,2,2.22,2.28,3.82,3s3.21,1.07,3.21,3.48c0,2.95-2.47,2.95-4.57,2.95H740.55c-2,0-4.44-.13-4.44-2.95,0-2.28,1.48-2.68,4.56-4,2.47-.94,2.72-1.88,2.84-7.24Zm11.11,33.39c13.2-2.15,39.1-5.1,39.1-24.81,0-15.16-15.05-17.17-25.78-17.17-12.71,0-13.32,2.42-13.32,10.06Z" transform="translate(-137.3 -26.8)"/><path class="cls-3" d="M842.47,550.25c0-3.22-.37-6.17-4-6.84-1.73-.53-3.33-.94-3.33-3.35,0-2.82,2.34-2.95,4.44-2.95h53.66c4.32,0,5.06,3.75,5.43,6.44a70.83,70.83,0,0,1,1,8.18,2,2,0,0,1-2.1,2.14,2.39,2.39,0,0,1-2.09-1.07c-4.45-6-8.64-8.72-21.6-8.72H862.7c-7.28,0-9.63,2.69-9.13,10.46V579H875c5.56,0,7.9-.13,10.49-2.68.87-.94,1.36-1.75,2.72-1.75,2.46,0,2.46,2.82,2.46,6.84,0,6.44,0,8.72-3,8.72-1.11,0-2-.94-2.71-1.74-2.47-2.42-3.95-2.42-9.25-2.42H853.57V616.5c0,9.39,1,11.8,7.9,11.8h9.12c18.63,0,22.95-2.95,27.27-7.38,1.11-1.07,3-3.35,4.56-3.35a2.08,2.08,0,0,1,2,2.28c0,2.28-.87,6.3-1.61,11.27-.49,3.21-1.11,4.15-5.8,4.15H840.25c-2,0-5.06-.13-5.06-3.08,0-2.15,1.36-2.68,3-3.22,4.07-1.34,4.32-2.55,4.32-7.91Z" transform="translate(-137.3 -26.8)"/><path class="cls-3" d="M931.92,550.25c0-3.22-.37-6.17-3.95-6.84-1.73-.53-3.33-.94-3.33-3.35,0-2.82,2.34-2.95,4.44-2.95h53.67c4.31,0,5,3.75,5.42,6.44a70.83,70.83,0,0,1,1,8.18,2,2,0,0,1-2.1,2.14A2.39,2.39,0,0,1,985,552.8c-4.45-6-8.64-8.72-21.59-8.72H952.15c-7.28,0-9.63,2.69-9.13,10.46V579h21.46c5.56,0,7.9-.13,10.5-2.68.86-.94,1.35-1.75,2.71-1.75,2.46,0,2.46,2.82,2.46,6.84,0,6.44,0,8.72-3,8.72-1.11,0-2-.94-2.71-1.74-2.47-2.42-4-2.42-9.25-2.42H943V616.5c0,9.39,1,11.8,7.9,11.8h9.13c18.62,0,22.94-2.95,27.26-7.38,1.11-1.07,3-3.35,4.56-3.35a2.08,2.08,0,0,1,2,2.28c0,2.28-.87,6.3-1.6,11.27-.5,3.21-1.12,4.15-5.8,4.15H929.69c-2,0-5.05-.13-5.05-3.08,0-2.15,1.36-2.68,3-3.22,4.07-1.34,4.32-2.55,4.32-7.91Z" transform="translate(-137.3 -26.8)"/><path class="cls-3" d="M1021.74,546.5c0-2-2.34-2.55-3.94-3-1.85-.67-3.58-1.07-3.58-3.49,0-2.81,2.34-2.95,4.31-2.95h16.91c2,0,4.44.14,4.44,2.95,0,2.28-1.36,2.55-3,3.36-4.45,2-4,2.27-4.08,7.91v38.75c11.6-11.8,21.47-21.86,32.21-33.93,2.59-2.81,5.54-6,5.54-9.12,0-5-6.53-2.55-6.53-7.37,0-2.55,2.22-2.55,4-2.55h18.13c1.85,0,4.69-.27,4.69,2.55,0,2-1.36,2.82-2.84,3.49-3.45,1.61-4.57,2.28-10.61,9.79-5.8,7.24-12.58,15.28-20.35,23.6,12.7,13.81,24.54,31.38,29.85,43.58,1.73,4,2.84,6.84,6.79,8.45,1.85.8,3.57,1.34,3.57,3.89s-2.46,2.81-4.32,2.81h-16c-2,0-5.8.14-5.8-3.08,0-3.49,4.94-2.41,4.94-6.44,0-7.64-20.61-35.13-26.9-41.44l-16.29,16.23v25.21c0,2.15,2.35,2.42,4,3.09s3.21,1.07,3.21,3.35c0,2.95-2.47,3.08-4.44,3.08h-17c-2.09,0-4.44-.13-4.44-3.08,0-2.15,1.48-2.68,3.21-3.22,4.44-1.34,4.44-2.54,4.44-7.91Z" transform="translate(-137.3 -26.8)"/><polygon class="cls-3" points="693.92 47.97 730.42 1.44 766.9 48.88 766.9 181.34 693.01 182.2 693.92 47.97"/><polygon class="cls-3" points="187.11 596.74 140.58 560.25 188.03 523.75 337.55 523.75 335.38 597.65 187.11 596.74"/><polygon class="cls-3" points="766.9 1074.36 730.42 1120.89 693.92 1073.44 693.92 965.08 767.82 965.08 766.9 1074.36"/><polygon class="cls-3" points="1276.45 523.75 1322.98 560.25 1275.54 596.74 1120.32 596.74 1118.44 522.84 1276.45 523.75"/><path class="cls-3" d="M571.75,588.88a18.25,18.25,0,1,1-18.25-18.25,18.25,18.25,0,0,1,18.25,18.25" transform="translate(-137.3 -26.8)"/><path class="cls-3" d="M1197.07,587.33a18.25,18.25,0,1,1-18.25-18.25,18.25,18.25,0,0,1,18.25,18.25" transform="translate(-137.3 -26.8)"/><path class="cls-3" d="M1477.5,579.64c4.79-1.37,16.32,2.39,21.28,4.79,5.38,2.59,7.29,7.7,12.93,13.34s16.43,30.45,16.43,30.45.17,2.74,3.59,2.74,8.89,1.37,7.87,2a28,28,0,0,0-7,6.5c-2.72,3.44-2,8.9-1.71,11s9.92,1.71,19.16,1.37,6.16,2.39,3.42,4.11-14,4.79-16.76,6.15-4.11,3.42-3.42,4.79,12.65,7.19,18.47,12.66,11.63,19.5,9.58,17.45-10.26-5.13-14-6.84-15.73-.69-13.34-.35,9.24,9.24,12.32,12.32,7.18,19.16,5.13,17.79-6.5,0-6.5,0,11.4,9.36,14.82,13.12,21,27.37,21,27.37l4.9,9.46s2.06,11.64,1.37,12.66-4.91,5.71-4.91,5.71-1.93-4-3.64-7.42S1572.84,765,1567,755.38s-37-36-37-36,4.57,4.33,5.25,6.38,4.11,7.53,4.11,13.34-4.79,2.74-6.85.69-12.66-9.92-12.66-9.92,4.79,5.47,8.9,10.94,3.76,12.66,1.37,11.64-3.08.68-3.08.68-.34,2,5.82,8.9,12.54,20.75,14.93,26.23S1566,817.31,1567,819.7a57.22,57.22,0,0,1,1.47,8.48c-8.68,6.88-4.66,15.25-4.66,15.25a4.3,4.3,0,0,1-3.19-3.2c-.69-2.74,2-4.34-9.58-30s-17.79-32.84-17.79-32.84,3.42,17.45,7.18,42.77-1.37,53-1.37,53,0,2-4.44-9.24-15.74-25.32-15.74-25.32l4.1,7.19c4.11,7.18,16.08,36.26,18.14,44.82s1,33.52,1,33.52a23.4,23.4,0,0,1-7.86-3.76c-16.33-11.3-26.69-22.58-41.06-49.27s-18.48-57.82-18.82-64.32-3.76-12.31-4.1-15.73-14-60.22-13-54.4,7.87,59.53,8.22,67.4,2.73,33.53,3.08,42.76,3.76,18.48,5.13,23.61,18.47,43.79,28,65.35,12,47.55,8.9,61.92-8.9,18.48-8.9,18.48,6.16,1.36,13.35-20.19-5.6-51.66-8.33-59.53-29.09-66.14-32.85-75.72-3.64-56.68-3.3-54.63,3.42,31.48,21.55,72.53,49.61,51,49.61,51a137.8,137.8,0,0,0-1.37,16.42c-.34,10.26-14,102.64-14,102.64s-1.8,1-4.1,7.18c-2.74,7.42-5.94,36.16-5.94,36.16s-7.52,3.19-9.57,4.56-12.2,8.89-23.49,13.34-12,9.92-12,9.92.69,1.37-.34,10.61-3.42,13.34-8.9,17.79a33.92,33.92,0,0,1-18.13,7.52c-6.5.69-12,2.06-14.71,3.42s-1.71,12-1.71,12-11.63-1.37-11.29-5.13,6.16-9.24,11.63-11.63,30.79-12,35.24-15.74,2-13,2-13-3.08,6.16-6.15,7.86-10.61-.34-17.11-.68-6.16,1-11.63,2.05a85.73,85.73,0,0,1-8.72,1.06c.49-1.49-2.09-5.32-2.74-5.75,4.13-1.7,10.25-4.22,11.8-4.89,2.39-1,3.76,0,7.53-1.36s20.52-1.37,23.94-1.37.69-5.48.69-8.9-8.1-11.17-20.76-24.85-25.09-35.59-26.45-41.86c-1.24-5.68-6.85-18.14-6.85-22.92s1-43.11,1-43.11l3.42-6.5-3.76,1a17.13,17.13,0,0,1-.69-6.84c.35-4.11.35-58.5.35-58.5l2.05-7.87-5.48,6.16v-3.77c0-3.76,1.37-22.58,1.71-38.32S1412.5,825,1412.5,825s-1-2.74,3.08-13.69,12.66-34.21,12.66-34.21a26,26,0,0,0-5.82,3.76c-2.74,2.4-7.87,14-7.87,14l-1-41.06,7.53-31.47-19.5,11.63-1-14L1416.94,698l-16.42-8.56,3.08-6.16-3.08-4.78,9.93-8.22-15.74-.34s.34-1.37,4.79-6.84,14-8.21,14-8.21l-4.1-18.13,16.76-1L1423.1,621l27,11,3.08-20.19,5.82,5.13.68-3.08a9.24,9.24,0,0,1,2.74-4.79,7.45,7.45,0,0,1-3.08-5.47c-.34-3.76,3.08-6.5,3.08-6.5s-2.4,0-2.74-3.42c-.41-4.11,3.42-6.16,3.42-6.16,2-3.42,9.58-6.5,14.37-7.87m27.71,161.14s-1.71-16.42-4.79-20.52a106.41,106.41,0,0,0-8.21-10.27c-2.39-2.39-2-4.45-2-4.45s6.84,3.08,8.55,3.42,6.16-70.64-1.37-84.84c-1.52-2.87-14.71,13-17.44,14s-5.14-17.45-6.5-20.53-3.77,16.76-5.48,18.47c0,0-8.21-14-10.26-15.05,0,0-.35,16.76-2.05,18.82s-14-5.13-18.82-5.48V650.8s-11-1.36-15.06-.68,5.82,4.79,7.19,6.16l1.37,1.36s-7.19,4.11-11.64,6.16-3.07,2.05-3.07,2.05,9.23,2.06,10.6,3.77-13.34,12.66-15,15.39,18.13,4.11,18.13,4.11-3.76,16.42-5.13,18.82,13.34-3.08,13.34-3.08-.34,20.18-1,21.89,20.52-10.6,20.52-10.6l9.24,10.26s2-12.65,2.4-14.71,8.55,9.24,8.89,10.61,7.19-9.24,7.19-9.24,19.84,23.61,20.52,27.71m4.79-77s-1.71,14.72-2,19.5.34,17.11.34,17.11,11.29,1.71,13,3.76,1.17-5.71,1.37-7.86a12.28,12.28,0,0,0-3.08-9.24s-7.87-3.42-6.5-3.77,3.08-1.71,5.82-1.71h2.74l.68-20.86s-.34-3.09-2.4-2.74-9.92,5.81-9.92,5.81M1530.19,683c3.83.74,5.63-.52,8.55-.34,2.74.17,7.53,1.37,10.26,1.37s-15.32-13.21-17.44-14.37c-3.77-2-5.31,6.84-5.31,6.84.35-1.36-.51,5.65,3.94,6.5m-3.42,8.9c0,1.71.34,14.71.34,14.71s7.87,2.74,11.63,3.76,3.76,2.4,4.11,0-2.36-7-4.11-9.58c-1.37-2-6.84-6.84-6.84-6.84-1-1.37-5.13-3.76-5.13-2M1510,716.49c2.94,4.32,16.77,13,19.16,15.74s2.06-3.42-1-8.89-13-12-14-13-3.77-5.13-5.13-5.13-4.11,3.76,1,11.29m-78,343.16s10.26,18.47,30.1,39.68c0,0,10.27,8.56,12.32,8.21s15.06-8.55,20.53-10.94,15-13.69,15-13.69,5.14-17.33,6.16-24.86,1-8.89,1-8.89-25.66-20.87-29.43-29.43-4.1-11.63-4.1-11.63-15.74-88.27-20.53-127.61-3.76-52.35-3.76-52.35a44.22,44.22,0,0,0-5.47,15.06c-1.37,8.55,1.36,77,6.15,105a255.22,255.22,0,0,1,3.77,49.61s-29.43,48.81-31.82,61.81m41-297s10.49,5,13.23,13.68c1.72,5.48,5.93,44.82,8.67,55.43s7,14.45,11.63,18.13c1.71,1.37-6.5-8.89-9.58-29.42-2.49-16.59-4.93-35-5.64-39.69-.86-5.64-3.94-18.81-18.31-18.13m37.29,15.05c9.58,12.66,14.14,36.26,14.37,30.79.69-16.42-5.47-31.13-20.87-42.42-12.47-9.15-29.76-25.66-29.76-25.66,1,5.47,30.65,29.87,36.26,37.29m-79.71,146.09s4.45-9.58,7.87-13,11.11-12.51,8.55-33.64c-2-16.94-4.45-45.22-.68-52.06a96.72,96.72,0,0,1,6.84-11.12c1.34-2-3.42.34-8.55,6.5s3.42-18.48,5.47-30.45,1.37-16.42,1.37-16.42-9.92,27.83-18.13,57.94c-8.55,31.33-5.82,24.6-5.82,33.06,0,3.42,4.9-16.49,12.2-26.22,1.37-1.83,1.65,18.32,3.2,26.22,2.73,14-.23,29.66-2.29,34.44s-11.74,16.2-10,24.75m-2.91,96.31c2-9.73,4.11-13.86,9.24-21s-3.76-20.87-2.74-17.79-.24,12.23-4.27,15.4a15.24,15.24,0,0,0-6,13.51s3.25,12.49,3.76,9.92M1431,935.8s-1.37,6.16-3.08,16.76c-3.11,19.28-14,37.29-14,37.29,23.6-25,17.1-54.05,17.1-54.05M1452.18,736c-14.32,14.33-8.89,32.85-8.89,32.85-.69-2.23,10.61-34.56,8.89-32.85m61.24-3.76s.69,8.21.18,9.07,7.86,5.3,8.89,6,3.93.86,2.74-2.39-10.09-11.81-11.81-12.66m-3.65-77L1520,651.6s5-12.77,6.16-15.51-16.43,1.14-17.34,1.14,1.6,17.34.91,18m10-29.42c-2.28-3.42-20.12-31.6-17.61-25.67.72,1.71-2,8.21-1.37,11a86.22,86.22,0,0,0,7.35,18.6c-.46-1.83,13.91-.46,11.63-3.88m-37.93-38.66c-7.66,0-13.87,2.49-13.87,5.58s6.21,5.57,13.87,5.57,13.86-2.49,13.86-5.57-6.2-5.58-13.86-5.58m0,11.15c-7.66,0-13.87,2.5-13.87,5.58s6.21,5.58,13.87,5.58,13.86-2.5,13.86-5.58-6.2-5.58-13.86-5.58m-.32,10.84c-7.66,0-13.87,2.5-13.87,5.58s6.21,5.58,13.87,5.58,13.87-2.49,13.87-5.58-6.21-5.58-13.87-5.58" transform="translate(-137.3 -26.8)"/><path class="cls-3" d="M1431.08,1172.09a10.72,10.72,0,1,1-10.71-10.72,10.72,10.72,0,0,1,10.71,10.72" transform="translate(-137.3 -26.8)"/><path class="cls-4" d="M1431.08,1172.09a10.72,10.72,0,1,1-10.71-10.72A10.72,10.72,0,0,1,1431.08,1172.09Z" transform="translate(-137.3 -26.8)"/><path class="cls-4" d="M1421.87,1137.88a10.72,10.72,0,1,1-3.21-7.65l0,0A10.7,10.7,0,0,1,1421.87,1137.88Z" transform="translate(-137.3 -26.8)"/><path class="cls-4" d="M1584.36,838.18a10.72,10.72,0,1,1-15.88-9.4l.16-.08a10.72,10.72,0,0,1,15.72,9.48Z" transform="translate(-137.3 -26.8)"/><path class="cls-3" d="M1597.7,782.52A10.72,10.72,0,1,1,1587,771.8a10.72,10.72,0,0,1,10.72,10.72" transform="translate(-137.3 -26.8)"/><path class="cls-4" d="M1597.7,782.52A10.72,10.72,0,1,1,1587,771.8,10.72,10.72,0,0,1,1597.7,782.52Z" transform="translate(-137.3 -26.8)"/><path class="cls-3" d="M227.82,629s6.16-12.56,5.25-18.93c-2.21-15.4-13.62,12.65-15.9,16.08s11.11,1,10.65,2.85" transform="translate(-137.3 -26.8)"/><path class="cls-4" d="M304.91,1171.41a10.72,10.72,0,1,0,10.73-10.72A10.72,10.72,0,0,0,304.91,1171.41Z" transform="translate(-137.3 -26.8)"/><path class="cls-3" d="M314.13,1137.2a10.72,10.72,0,1,0,10.72-10.72,10.72,10.72,0,0,0-10.72,10.72" transform="translate(-137.3 -26.8)"/><path class="cls-4" d="M314.13,1137.2a10.72,10.72,0,1,0,10.72-10.72A10.72,10.72,0,0,0,314.13,1137.2Z" transform="translate(-137.3 -26.8)"/><path class="cls-3" d="M151.64,837.49a10.72,10.72,0,1,0,10.72-10.71,10.72,10.72,0,0,0-10.72,10.71" transform="translate(-137.3 -26.8)"/><path class="cls-4" d="M151.64,837.49a10.72,10.72,0,1,0,10.72-10.71A10.72,10.72,0,0,0,151.64,837.49Z" transform="translate(-137.3 -26.8)"/><path class="cls-4" d="M138.3,781.84A10.72,10.72,0,1,0,149,771.12,10.72,10.72,0,0,0,138.3,781.84Z" transform="translate(-137.3 -26.8)"/><path class="cls-3" d="M1016.3,1123.55a8.81,8.81,0,0,1,3.34,2.7,12.4,12.4,0,0,1,1.8,3.27,11.94,11.94,0,0,1,.65,4.07,12.53,12.53,0,0,1-1.28,5.44,7.32,7.32,0,0,1-4.23,3.77,6.87,6.87,0,0,1,3.5,3.06,13.86,13.86,0,0,1,1,6.07v2.6a21.39,21.39,0,0,0,.2,3.61,3.22,3.22,0,0,0,1.37,2.2v1h-8.22c-.23-.86-.39-1.56-.49-2.08a21.6,21.6,0,0,1-.31-3.34l0-3.6c0-2.48-.42-4.12-1.18-5s-2.17-1.24-4.24-1.24h-7.28v15.21h-7.29v-38.77h17.06a14.26,14.26,0,0,1,5.63,1m-15.4,5.73v10.42h8a8.13,8.13,0,0,0,3.59-.63c1.4-.74,2.11-2.19,2.11-4.37,0-2.35-.69-3.93-2-4.74a6.93,6.93,0,0,0-3.45-.68Z" transform="translate(-137.3 -26.8)"/><path class="cls-4" d="M1037.79,1141.67a30.8,30.8,0,1,1-30.79-30.8A30.8,30.8,0,0,1,1037.79,1141.67Z" transform="translate(-137.3 -26.8)"/><path class="cls-3" d="M272.87,586.82s3.83,2,3.42,6.16c-.34,3.42-2.74,3.42-2.74,3.42s3.43,2.74,3.08,6.51a7.45,7.45,0,0,1-3.08,5.47,9.24,9.24,0,0,1,2.74,4.79l.69,3.08,5.81-5.13,3.08,20.18,27-10.94-3.08,14.71,16.77,1-4.11,18.13s9.58,2.74,14,8.21,4.79,6.85,4.79,6.85l-15.74.34,9.92,8.21-3.08,4.79,3.08,6.16-16.42,8.55,16.42,21.9-1,14L315,721.62l7.53,31.48-1,41s-5.13-11.63-7.87-14a25.86,25.86,0,0,0-5.81-3.77s8.55,23.27,12.65,34.22,3.09,13.68,3.09,13.68,4.78,25.66,5.13,41.4,1.71,34.56,1.71,38.32v3.76l-5.48-6.16,2.06,7.87s0,54.4.34,58.51a17.25,17.25,0,0,1-.68,6.84l-3.77-1,3.42,6.5s1,38.32,1,43.11-5.6,17.24-6.85,22.92c-1.36,6.28-13.8,28.17-26.46,41.86s-20.75,21.43-20.75,24.86-2.73,8.9.69,8.9,20.18,0,23.94,1.36,5.14.34,7.53,1.37,15.74,6.5,15.74,6.5l-1.71,4.45a119.7,119.7,0,0,1-13.69-1.37c-5.47-1-5.13-2.4-11.63-2s-14,2.39-17.1.68-6.16-7.87-6.16-7.87-2.4,9.24,2.05,13,29.76,13.35,35.24,15.74a26.78,26.78,0,0,1,9.24,6.93c1,.76-3.14-1.66-8.84,2.55-.2-2.19-.69-4.15-1.77-4.69-2.74-1.37-8.21-2.74-14.71-3.42a33.85,33.85,0,0,1-18.13-7.53c-5.48-4.44-7.87-8.55-8.9-17.79s-.34-10.61-.34-10.61-.68-5.47-12-9.92-21.44-12-23.49-13.33-9.58-4.57-9.58-4.57-3.19-28.74-5.93-36.15c-2.3-6.24-4.1-7.19-4.1-7.19s-13.69-92.37-14-102.63A137.86,137.86,0,0,0,194.18,929s31.48-9.92,49.61-51S265,807.5,265.34,805.45s.46,45-3.31,54.62-30.1,67.86-32.84,75.73-15.51,38-8.32,59.53,13.34,20.18,13.34,20.18-5.82-4.1-8.9-18.47-.68-40.38,8.9-61.93,26.69-60.22,28-65.35,4.79-14.37,5.14-23.6,2.73-34.9,3.08-42.77,7.18-61.58,8.21-67.4-12.66,51-13,54.4-3.76,9.24-4.1,15.74-4.45,37.63-18.82,64.32-24.74,38-41,49.27a23.49,23.49,0,0,1-7.87,3.76s-1-25,1-33.53,14-37.63,18.14-44.82l4.1-7.18s-11.29,14-15.73,25.32-4.45,9.23-4.45,9.23-5.13-27.71-1.37-53,7.18-42.76,7.18-42.76-6.15,7.18-17.79,32.84-8.89,27.26-9.58,30a4.3,4.3,0,0,1-3.19,3.19l-6.39-.46S168,821.41,169,819s16.76-26,19.15-31.48,8.79-19.39,15-26.23,5.81-8.89,5.81-8.89-.68-1.71-3.08-.69-2.73-6.16,1.37-11.63,8.9-11,8.9-11-10.61,7.87-12.66,9.92-6.84,5.13-6.84-.68S200,727.1,200.68,725s5.24-6.38,5.24-6.38-31.13,26.46-36.94,36c-4.73,7.77-8.17,17.43-10.21,22.62-2.9-4.74-4.56-5.11-8.71-6.19.19-1.17.33-2,.33-2l4.9-9.46s17.56-23.61,21-27.37,14.83-13.12,14.83-13.12-4.45-1.37-6.5,0,2.05-14.71,5.13-17.79,9.92-12,12.32-12.32-9.58-1.37-13.34.34-12,4.79-14,6.84,3.76-12,9.58-17.44,17.79-11.29,18.47-12.66-.68-3.42-3.42-4.79-14-4.45-16.76-6.16-5.82-4.45,3.42-4.1,18.82.68,19.16-1.37,1-7.52-1.71-10.95a27.57,27.57,0,0,0-7-6.5c-1-.68,4.45-2.05,7.87-2.05s3.6-2.74,3.6-2.74,10.77-24.8,16.42-30.45,7.57-9.38,13-12c5-2.39,15.74-5,20.53-3.65s13.05,1.94,15.1,5.36M251.32,712.39s6.84,10.6,7.18,9.23,8.55-12.66,8.9-10.6,2.39,14.71,2.39,14.71L279,715.46s21.21,12.32,20.53,10.61-1-21.9-1-21.9,14.71,5.48,13.34,3.08-5.13-18.81-5.13-18.81,19.85-1.37,18.13-4.11-16.42-13.69-15.05-15.4,10.6-3.76,10.6-3.76,1.37,0-3.07-2S305.71,657,305.71,657l1.37-1.37c1.37-1.37,11.29-5.47,7.19-6.15s-15.06.68-15.06.68V633.7c-4.79.34-17.1,7.52-18.81,5.47s-2.06-18.81-2.06-18.81c-2,1-10.26,15-10.26,15-1.71-1.71-4.1-21.56-5.47-18.48s-3.77,21.56-6.5,20.53-15.93-16.9-17.45-14c-7.53,14.2-3.08,85.19-1.37,84.85s8.55-3.42,8.55-3.42.34,2-2.05,4.45a104.89,104.89,0,0,0-8.21,10.26c-3.08,4.11-4.79,20.53-4.79,20.53.68-4.11,20.53-27.71,20.53-27.71M216.08,657.3c-2.06-.34-2.4,2.74-2.4,2.74l.69,20.87h2.73c2.74,0,4.45,1.37,5.82,1.71s-6.5,3.76-6.5,3.76a12.3,12.3,0,0,0-3.08,9.24c.2,2.16-.34,9.92,1.37,7.87s13-3.76,13-3.76.68-12.32.34-17.11-2.05-19.5-2.05-19.5-7.87-5.48-9.92-5.82m-6.33,18.48s-1.54-8.9-5.31-6.85c-2.12,1.16-20.18,14.37-17.44,14.37s7.52-1.19,10.26-1.36c2.92-.19,4.72,1.08,8.55.34,4.45-.86,3.59-7.87,3.94-6.5m-5.65,17.45s-5.47,4.79-6.84,6.84c-1.75,2.62-4.45,7.18-4.11,9.58s.35,1,4.11,0,11.63-3.77,11.63-3.77.35-13,.35-14.71-4.11.69-5.14,2.06M227,704.52c-1.37,0-4.11,4.1-5.14,5.13s-10.94,7.53-14,13-3.43,11.63-1,8.89,16.22-11.42,19.16-15.73c5.13-7.53,2.39-11.29,1-11.29m45.16,292.63A254.7,254.7,0,0,1,276,947.54c4.79-28,7.53-96.47,6.16-105a44.35,44.35,0,0,0-5.48-15s1,13-3.76,52.34-20.53,127.62-20.53,127.62-.34,3.08-4.1,11.63-29.43,29.42-29.43,29.42,0,1.37,1,8.9,6.16,24.86,6.16,24.86,9.58,11.28,15.05,13.68,18.48,10.61,20.53,10.95,12.32-8.21,12.32-8.21C293.74,1077.44,304,1059,304,1059c-2.39-13-31.81-61.81-31.81-61.81m-27.55-217c-.71,4.71-3.16,23.1-5.64,39.68-3.08,20.53-11.29,30.8-9.58,29.43,4.6-3.68,8.9-7.53,11.63-18.14s6.95-49.94,8.67-55.42C252.46,767,263,762,263,762c-14.37-.69-17.45,12.48-18.31,18.13m17.28-40.37s-17.29,16.51-29.76,25.66c-15.4,11.29-21.56,26-20.87,42.42.23,5.47,4.79-18.13,14.37-30.79,5.61-7.42,35.24-31.82,36.26-37.29m33.41,158.63c-2.05-4.79-5-20.42-2.27-34.44,1.53-7.9,1.82-28.06,3.19-26.23,7.29,9.74,12.2,29.65,12.2,26.23,0-8.46,2.73-1.74-5.82-33.07-8.21-30.11-18.13-57.94-18.13-57.94s-.68,4.45,1.37,16.42,10.61,36.61,5.47,30.45-9.89-8.51-8.55-6.5a98.56,98.56,0,0,1,6.84,11.12c3.77,6.85,1.37,35.13-.68,52.06-2.56,21.13,5.13,30.22,8.55,33.65s7.87,13,7.87,13c1.71-8.56-8-20-10-24.75M312,1009.53a15.27,15.27,0,0,0-6-13.52c-4-3.17-5.31-12.32-4.28-15.4s-7.87,10.61-2.74,17.79,7.29,11.32,9.24,21.05c.51,2.56,3.76-9.92,3.76-9.92m10.1-20.36s-10.92-18-14-37.29c-1.71-10.61-3.08-16.77-3.08-16.77s-6.5,29.08,17.11,54.06m-29.43-221s5.43-18.51-8.89-32.84c-1.71-1.71,9.58,30.62,8.89,32.84M210.77,744.2c-1.19,3.26,1.71,3.08,2.74,2.4s9.41-5.13,8.9-6,.17-9.07.17-9.07c-1.71.86-10.61,9.41-11.81,12.66m16.37-107.65c-.92,0-18.48-3.88-17.34-1.14S216,650.92,216,650.92l10.26,3.65c-.68-.69,1.83-18,.92-18m13.11-44.49c0,3.08,6.21,5.58,13.87,5.58s13.87-2.5,13.87-5.58-6.21-5.58-13.87-5.58-13.87,2.5-13.87,5.58m0,11.16c0,3.08,6.21,5.58,13.87,5.58S268,606.3,268,603.22s-6.21-5.58-13.87-5.58-13.87,2.5-13.87,5.58m.32,10.84c0,3.08,6.21,5.58,13.87,5.58s13.86-2.5,13.86-5.58-6.2-5.58-13.86-5.58-13.87,2.5-13.87,5.58m-32.52,42.21s-15.51-2.74-15.51-1.37,11.4,6.39,13.22,6.85,3.2-4.11,2.29-5.48" transform="translate(-137.3 -26.8)"/><path class="cls-3" d="M589.24,380.73c-2.89-2.63-3.35-2.47-5.28-1.37-2.08,1.26-3.33,2.12-4.86.73-1.87-1.7-.6-3.27.54-4.52l18.22-20c14.23-15.65,27.18-15.88,35.34-8.45,17,15.47,8.78,37.15-6.94,54.44l15,13.61c3.4,3.09,4.37,3.4,6.22,2.22,2.44-1.49,3.76-2.43,5.29-1,1.87,1.7.54,3.34-.6,4.59l-10,11c-1.2,1.32-2.64,2.73-4.51,1-1.36-1.24-.84-2.33-.34-3.73,1.19-3.35.74-4.05-2.66-7.15Zm32.59,16.78c9.08-9.46,19.42-28.51,6.15-40.58-8-7.27-17.73-6.12-27.48,4.59-7.9,8.69-6.22,10.93-1.71,15Zm49.4-54.59C659,322,661.61,297.29,681.61,285.61c17.81-10.4,41.68-4.77,55.42,18.76,12.46,21.34,8,45.63-11.89,57.26-16.25,9.49-39.65,5.71-53.91-18.71M728,310.31c-11.48-19.66-29-27.81-43.31-19.44-15.44,9-13.53,30.53-4.2,46.51,11.19,19.16,28.85,26.55,42.1,18.82,14.15-8.27,15.73-28.23,5.41-45.89m56.51-7.95c-.24,4.62-1.94,14.72-1.13,18.66,1.43,7,6.58,4.16,7.27,7.54.51,2.47-2.5,3.09-5.71,3.75L776.55,334c-2.49.51-4.35.89-4.88-1.7a3.18,3.18,0,0,1,1.1-3,7,7,0,0,0,2.33-4.94c2.31-27.11,7.21-54.76,12.15-72.79.79-3,2-8.4,3.61-8.72,2-.41,6.37,5.26,7.37,6.46,12.16,14.52,24.81,34.57,40.3,62.6,1.18,2.1,2.25,2.59,4.45,3.31,1.15.35,2,.76,2.27,2.11.54,2.59-1.87,3-3.63,3.33l-12.85,2.64c-1.66.34-3.78.54-4.26-1.82-.72-3.49,4.82-3.34,4.08-6.94-.46-2.25-7.37-14.33-10.4-19.1Zm30.81-12.44C808,277.71,800,265.26,792.44,256.84a262.15,262.15,0,0,0-7.17,39.26Zm58.61-40.08c.6-6.18.25-6.91-1.7-7.67-2.55-1.06-4-1.55-3.79-3.61.24-2.51,2.25-2.43,4-2.26l32.73,3.18c13.48,1.31,23,8.24,21.67,22-1.07,11-10.36,17-19.5,20.28,6.38,9.74,10.21,20.74,13.69,31.94,1.12,3.69,1.71,5.37,4.81,7.28,1.21.7,2.65,1.19,2.47,3-.22,2.28-2.32,2.08-3.8,1.94L909,324.4c-1.58-.15-4.21-.41-4-2.81.34-3.55,5.59-1.77,6-6,.61-6.29-9.35-26.21-13.58-31.93a127.14,127.14,0,0,1-17.37,1.66l-2.71,27.92c-.17,1.72,1.7,2.13,3,2.83s2.65,1.19,2.45,3.25c-.24,2.51-2.35,2.31-4.14,2.13l-14.1-1.37c-1.68-.16-3.78-.48-3.54-2.88.18-1.95,1.48-2.17,4.22-3.06,2.19-.59,2.47-1.37,3-5.94Zm6.71,29.41c11.44-.73,33.78-1.1,35.41-17.92,1.26-12.93-11.41-15.9-20.57-16.79-10.84-1-11.57,1-12.2,7.48Zm150.12,19.47c-.76,1.8-2,3.39-4,2.57-1.57-.66-1.18-3.74-1.23-5.26-.38-12.14-4.32-19.67-13.77-23.66-18.81-7.95-35.37,6.26-42.44,23-9.75,23.08-1.72,39.95,12.6,46,8.57,3.62,16.08,2.43,24.9-1.58,1.42-.65,3.25-2,4.91-1.29a2.53,2.53,0,0,1,1.07,3.44c-1.48,3.5-11.34,6.44-14.44,7-6.79,1.38-12.46,1.22-20.55-2.2-19.49-8.23-28.94-30.69-19.77-52.4,8.76-20.75,29.6-38.52,56.39-27.2,8.28,3.5,12,7.09,16.5,12.84,4.16,5.38,4.3,8.06,3,11.13Zm45.79,14.14c1.22-1.38-.06-3-.78-4.23s-1.69-2.72-.32-4.27c1.67-1.89,3.34-.42,4.6.7l10.94,9.67c1.26,1.12,2.7,2.53,1.1,4.34-1.3,1.47-2.4,1-3.81.48-3.84-1.56-4.22-.82-7.26,2.62l-15.38,17.4,34.3,30.33,18.12-20.5c2.13-2.41-4.15-5-1.18-8.41,1.61-1.81,3.18-.56,4.45.56l11.25,9.95c1.27,1.12,2.7,2.53,1.1,4.34-1.3,1.46-2.47,1-3.89.4-3.92-1.78-4.37-.79-7.34,2.56l-41.57,47c-2.89,3.27,2.55,6.86.49,9.18-1.67,1.9-3.25.65-4.52-.47l-11.17-9.87c-1.35-1.19-2.77-2.61-1.1-4.5,1.22-1.38,2.47-.89,3.81-.32,3.61,1.5,4,1.23,7.34-2.56L1096,374.37l-34.31-30.32L1038.76,370c-1.14,1.29.14,2.88.78,4.22s1.53,2.58.24,4c-1.67,1.9-3.26.65-4.6-.54L1024.24,368c-1.26-1.12-2.77-2.61-1.1-4.5,1.22-1.38,2.48-.89,3.89-.25,3.85,1.71,4.3.73,7.27-2.63ZM630.34,769.74c1.38-1,.46-2.84,0-4.22s-1-2.93.63-4.16c2-1.51,3.29.19,4.3,1.55L644,774.63c1,1.37,2.11,3,.18,4.49-1.57,1.16-2.54.43-3.82-.33-3.51-2.41-3.9-1.59-7.66,1.06l-51.24,38c-1.39,1-.47,2.85-.12,4.29s1,2.85-.6,4c-2,1.51-3.32,0-4.39-1.49l-8.69-11.72c-1-1.36-2.18-3.12-.15-4.63,1.48-1.09,2.61-.35,3.86.57,3.41,2.47,4,1.6,7.65-1.07Zm32.95,48.49c2.68-3.46,5-6.45,2-10.12-.87-1.12-2.24-2.47-1-4.1,1.13-1.46,2.68-.69,3.76.15l8.61,6.68a4.49,4.49,0,0,1,2.09,4.38c1.16,24.91-.59,47.7-4.48,72.91l29.66-38.25c4-5.17,4.48-6.12,3.05-8.25-1.25-1.84-2.44-3.06-1-4.88,1.2-1.54,2.64-1.15,3.81-.24l10.27,8c1.26,1,2,2.42.81,4-1.06,1.36-2.51.82-4.68.16-2.87-.78-3.28-.08-6.87,4.55l-40.66,52.41c-1.34,1.73-3.31,5.14-5.65,3.33s.17-3.51,1.23-12.29c3.28-26.84,7.21-59,5.93-77l-38,49c-1.9,2.45-2.73,3.7-.87,6.3,1.22,1.53,2.25,2.62.77,4.53a2.52,2.52,0,0,1-3.8.41L616.89,871a2.45,2.45,0,0,1-.55-3.77c1.12-1.46,2.4-1.2,4.91-.12,2.76,1.26,3.86.37,7.45-4.26Zm85.68,50c.53-1.64-1.27-2.59-2.44-3.45s-2.43-1.76-1.82-3.62c.75-2.3,2.73-1.89,4.34-1.37l20.7,6.76c11.16,3.64,20.47,7.16,27.36,17.75,7.25,11.19,7.7,23.79,3.46,36.79C796.8,932.69,781.78,959,749,948.3l-26-8.49c-1.71-.56-3.59-1.29-2.8-3.7.57-1.74,1.92-1.79,3.37-1.8,4.25-.06,4.23-1,5.62-5.3Zm-8.27,56.07c-3.67,11.26-4.76,13.56,6.6,17.27,19.61,6.39,36-2.18,43-23.71s.88-38.16-21.74-45.54c-9.15-3-10.6-.92-13.52,8Zm110.56-32.94c.07-1.73-1.92-2.15-3.28-2.67s-2.92-1-2.83-3.1c.1-2.53,2.21-2.44,3.9-2.37l14.58.58c1.69.07,3.7.27,3.6,2.68-.08,2-1.26,2.25-2.65,2.77-4.08,1.21-3.68,2-4,6.62L858,959.63c-.07,1.72,1.93,2.14,3.28,2.78s2.81,1,2.73,3c-.1,2.53-2.11,2.56-3.91,2.49l-14.58-.59c-1.69-.07-3.8-.27-3.7-2.79.08-1.84,1.36-2.25,2.86-2.65,4.07-1.1,3.79-2.15,4-6.63ZM926.48,934c-.11,4.64-1.54,14.77-.62,18.68,1.62,7,6.69,4,7.47,7.34.58,2.47-2.41,3.17-5.6,3.91l-8.34,2c-2.47.58-4.33,1-4.93-1.57a3.21,3.21,0,0,1,1-3.07,7,7,0,0,0,2.2-5c1.57-27.16,5.72-54.93,10.16-73.09.71-3,1.83-8.46,3.37-8.81,2-.46,6.51,5.08,7.55,6.26,12.55,14.18,25.74,33.87,42,61.48,1.24,2.07,2.32,2.52,4.54,3.19,1.16.31,2,.7,2.33,2,.6,2.57-1.79,3-3.54,3.42l-12.78,3c-1.64.39-3.76.64-4.31-1.7-.81-3.47,4.73-3.47,3.89-7-.52-2.24-7.75-14.13-10.92-18.82ZM957,920.72c-7.7-12-16-24.24-23.78-32.45a262.11,262.11,0,0,0-6.09,39.44Zm48.51-55.05c-2.37-3.67-4.42-6.86-8.9-5.21-1.34.45-3.06,1.29-4.19-.45-1-1.55.25-2.75,1.4-3.5l9.16-5.9a4.48,4.48,0,0,1,4.83-.51c23.88,7.18,44.8,16.4,67.28,28.45l-26.22-40.69c-3.55-5.51-4.29-6.27-6.77-5.63-2.15.57-3.7,1.3-4.94-.64-1.06-1.64-.22-2.87,1-3.67l10.94-7c1.33-.86,3-1.08,4,.56.93,1.45-.06,2.64-1.41,4.46-1.69,2.46-1.16,3.08,2,8l35.94,55.76c1.18,1.84,3.74,4.84,1.25,6.44s-3.25-1.33-11.18-5.24c-24.22-12-53.26-26.41-70.68-31.18l33.56,52.09c1.69,2.61,2.59,3.8,5.66,2.92,1.85-.65,3.22-1.26,4.53.77a2.51,2.51,0,0,1-.88,3.72L1039.8,927a2.46,2.46,0,0,1-3.75-.73c-1-1.55-.33-2.66,1.52-4.68,2.12-2.18,1.64-3.51-1.54-8.44ZM1152.1,827c6.15-7.67,8.2-19.59-1.21-27.14-19-15.26-36.37,31.55-60.39,12.27-9.87-7.92-13.22-22.28-2.1-36.14,4-5,10.17-9.73,16.57-11.65a5.08,5.08,0,0,1,3.7,0,45.82,45.82,0,0,1,5.39,3.92c1,.8,3.27,2.36,2.08,3.84-1.85,2.31-14.5-3.23-24.83,9.64-4.69,5.85-5.25,15.17,1.56,20.64,19.81,15.91,34-32.25,62.13-9.65,7.71,6.18,14,22.77,1,39-14.1,17.57-30.39,12.36-33.89,9.55-1.43-1.15-2.27-3-1.08-4.53s2.89-1.21,4.67-.86c11.2,2.21,19.75-.55,26.44-8.89" transform="translate(-137.3 -26.8)"/><polygon class="cls-3" points="766.9 822.75 730.42 826.94 693.92 824.2 693.92 664.71 767.82 667.26 766.9 822.75"/><polygon class="cls-3" points="693.79 320.28 730.28 317.48 766.77 320.63 766.77 459.51 692.88 459.51 693.79 320.28"/><path class="cls-5" d="M865.29,207.06c-217.17,0-393.22,176.05-393.22,393.21S648.12,993.5,865.29,993.5s393.22-176.06,393.22-393.23S1082.46,207.06,865.29,207.06Zm1.14,645.48c-140.2,0-253.86-113.66-253.86-253.86S726.23,344.82,866.43,344.82s253.86,113.66,253.86,253.86S1006.64,852.54,866.43,852.54Z" transform="translate(-137.3 -26.8)"/><path class="cls-5" d="M865.29,207.06a393.78,393.78,0,0,1,101.87,13.33V156L867.72,30.07,771,156.88v61.56A394.23,394.23,0,0,1,865.29,207.06Z" transform="translate(-137.3 -26.8)"/><path class="cls-5" d="M967.16,365.61A254.43,254.43,0,0,0,771,363.39V489H637.44a254.47,254.47,0,0,0-8.39,199.81H768.27V832.86a254.5,254.5,0,0,0,199.8-1.51V688.78h135.75a254.54,254.54,0,0,0-8.4-199.81H967.16Z" transform="translate(-137.3 -26.8)"/><path class="cls-5" d="M1333,489h-90.48a396.08,396.08,0,0,1,6,199.81H1333l125-103.1Z" transform="translate(-137.3 -26.8)"/><path class="cls-5" d="M472.07,600.27a393.55,393.55,0,0,1,16-111.3h-83.8L280.17,587.51,402.42,688.78h79.65A394.65,394.65,0,0,1,472.07,600.27Z" transform="translate(-137.3 -26.8)"/><path class="cls-5" d="M865.29,993.5a393.76,393.76,0,0,1-97-12.07v36.7l100.36,128.64,99.44-129.55V979.93A393.62,393.62,0,0,1,865.29,993.5Z" transform="translate(-137.3 -26.8)"/></g></svg>