<svg id="Layer_1" data-name="Layer 1" xmlns="http://www.w3.org/2000/svg" viewBox="0 0 199.82 322"><defs><style>.cls-1{fill:#782c1c;}</style></defs><title>alabama</title><path class="cls-1" d="M376.33,234.88s17.51,136.54,19.58,144.59,10.35,11.54,13.25,14.19-.67,4.32-4,11.53-6.58,21.05-6.58,21.05a44.76,44.76,0,0,1,.89,15.6l-9,58.2-124.07,2.84L264.05,518c-.84,5.39,7.21,3.33,6.21,9.8s-3.76,17.08-3.76,17.08l3.65,5-13.94,4.46-21.32,2.21,12.45-9.1-3.3-7.14s-6.71-6.56-9.54-2.58-3.83,10.44-3.83,10.44l-18.49-1.76s-4.17-51.42.27-87.16,26-203.49,26-203.49-5.8-5.31-9.77-8.14-2.13-13.06-2.13-13.06l149.75.37" transform="translate(-210.41 -234.51)"/></svg>