<svg id="Layer_1" data-name="Layer 1" xmlns="http://www.w3.org/2000/svg" viewBox="0 0 75.8 122.14"><defs><style>.cls-1{fill:#231f20;}.cls-2{fill:#fff;}</style></defs><title>alabama-black</title><path class="cls-1" d="M709.09,322.63s6.64,51.79,7.42,54.84,3.93,4.38,5,5.39-.25,1.63-1.51,4.37a55.14,55.14,0,0,0-2.5,8,17,17,0,0,1,.34,5.91l-3.42,22.08-47.06,1.08L666.5,430c-.32,2.05,2.73,1.26,2.35,3.72s-1.42,6.48-1.42,6.48l1.38,1.88-5.29,1.7-8.08.84,4.72-3.46-1.25-2.7s-2.55-2.49-3.62-1a11,11,0,0,0-1.45,4l-7-.67s-1.58-19.51.11-33.06,9.87-77.19,9.87-77.19-2.2-2-3.71-3.08-.81-5-.81-5l56.81.14" transform="translate(-646.15 -322.49)"/><path class="cls-2" d="M683.33,349.47a15,15,0,0,0-15,15c0,8.31,15,31.33,15,31.33s15-23,15-31.33A15,15,0,0,0,683.33,349.47Zm0,21.72a6.27,6.27,0,1,1,6.26-6.26A6.27,6.27,0,0,1,683.33,371.19Z" transform="translate(-646.15 -322.49)"/></svg>