<svg id="Layer_1" data-name="Layer 1" xmlns="http://www.w3.org/2000/svg" viewBox="0 0 485 66.48"><defs><style>.cls-1{fill:none;stroke:#231f20;stroke-linecap:round;stroke-miterlimit:10;}</style></defs><title>cityscape2</title><path class="cls-1" d="M925.5,409.5h-2v-9h-3v-4h-4v7h-4v-11h-8v7h-2v5h-4v-36h-13v27h-2v14h-3v-39h-7v30h-3v-26h-10v29h-2v7h-3v-10h-3.13L849.12,417c-1.24,0-2.48-.05-3.71-.05-.75,0-.9-.41-.82-1,.33-3,.62-6,1-8.94a21.24,21.24,0,0,1,2.13-7.2c.07-.13,0-.33,0-.56l-.89-.1c.2-.83.8-1.67-.15-2.46-.65.91-.43,2.43-1.57,2.75A8.15,8.15,0,0,0,844,399c-1.71-.21-3.37.45-5.16.06a3.74,3.74,0,0,0-3.73,1.33c-.09.12-.57,0-.77-.13a2.69,2.69,0,0,0-2.06-.11,11.41,11.41,0,0,1-1,.69c-.16.11-.47.19-.47.29-.06,1.2-1,.93-1.64,1.15l-2.53.86c-.62-.9-1.12-.84-1.62,0a1.57,1.57,0,0,1-.86.66c-.78.21-1.59.27-2.36.49a17.35,17.35,0,0,1-1.88.73,19.24,19.24,0,0,1-2.77,0c.42-.56.74-1,1-1.41l-.22-.25c-1.42.92-2.32,2.75-4.51,2.92l2.16-2.89-.29-.25L810.18,408l-.37-.36,1.3-1.8c.51-.71,1-1.41,1.51-2.13a1.77,1.77,0,0,0,.14-.63c-.22,0-.52,0-.65.14-1,1.08-1.93,2.2-2.91,3.29-.44.49-1,.92-1.42,1.38l-.21-.23c.65-.94,1.31-1.86,1.93-2.83a2.38,2.38,0,0,0,.14-.84,2.42,2.42,0,0,0-.66.4c-.8.94-1.55,1.92-2.35,2.85a2.78,2.78,0,0,1-.83.46l-.17-.22,2-3.4-.29-.29a4.77,4.77,0,0,0-.7.56c-.74.9-1.44,1.84-2.17,2.74a4.14,4.14,0,0,1-.63.55l-.31-.24c.48-.91,1-1.8,1.44-2.72a5,5,0,0,0,.25-1,3.5,3.5,0,0,0-.88.57,17.24,17.24,0,0,0-1.13,1.56c-.17-1.45-.76-2.06-1.84-2.24-.34,0-.61-.52-.92-.8s-.14-.63,0-1a1,1,0,0,0-.32-.88,1.59,1.59,0,0,1-.28-2.5c.51-.51.35-1.3-.53-2.2l1.13-.14c0-.13.1-.36,0-.43-.49-.49-.95-1.2-1.53-1.36-.91-.25-.83-.79-.78-1.46,0-.12-.09-.25-.14-.37h-.58v.79s-1,.73-1.11,1.21h-1.87c.29.69.47,1.06.65,1.41s.37.47.36.7c0,1.71-.15,3.41-.24,5.11,0,.65-.17,1.12-1,1.18s-1.79.32-1.51,1.59a.63.63,0,0,1,0,.19c-.38,1.26-.38,1.26.41,2.14-.43,0-.77-.07-1.12-.08h-1.16c.12,1.65-1.07.53-1.54,1a16.36,16.36,0,0,0-1.85,1.14c-.56.45-1.36.74-1.58,1.64a16.77,16.77,0,0,0-2.37.45V393.5h-7v14h-4v-18l-1.58-5H763.5v2h-7v23h-5v-9h-5v-5h-4v-9c0-1.59-7,0-7,0v19h-5v6h-3.67l-.33.15V391.91l-2-3.17v-14l-1-3.9v-5.28l-.75-.85-.25-4.22v-3.69l-.18-.53-.1-4.73h-.53l-.11,4.73-.08.53v3.69l-.34,4.22-1.66.85v5.28l-1,3.9v14l-1,3.17V413.5h-2.14l-.86.11V400.69l-1-2v-8.6l-2-2.46v-3.32l.65-.53.35-2.65v-2.33l-.62-.33-.06-3h-.34l-.06,3,.08.33v2.33l-.35,2.65-.65.53v3.23l-1,2.65v8.66l-1,2.15v13.67l-3,.47V402.5h-3v-17h-7v6h-4v15h-4V380.11c0-1.67-7,0-7,0V396.5h-3V375.61c0-1.34-7,0-7,0v5.89h-2v17h-3v-5h-3v-19h-4v-4h-8v21h-9v1h-6v-1.95l-2-1.3v-.75h-1v-4h1v-1h1v-.79l-1.5-1.49s0-5.74-6.5-8.19v-1.72l.29-.36-1.29-1.24V359.9l-3.11,2-.15,4.48,2.26-1.19,0,4.17L622.11,371l.39.39v1.88c-6.53,2.49-6.5,8.33-6.5,8.33l-1.5,1.5v.41h0v1h2v4h-1v.72l-2,1.3v2h-13v-14h-9v7.18l-3,3.06v9.76h-5V372.66c0-1.86-10,0-10,0v7.84h-2v28h-5v-2.38c0-1.59-3.45,0-3,0V402.5h-.6l-.45-10.89h0a3,3,0,0,0,.4-.23h0l.08-.05h0a1.2,1.2,0,0,0,.2-.18h0l.05-.05v0l0-.05h0l0-.06h0l0-.07h0a.08.08,0,0,0,0,0v0a.06.06,0,0,0,0,0v0a.09.09,0,0,1,0,0v-.16s0,0,0-.05v-.08s0,0,0,0v0l0-.05h0a.21.21,0,0,0,0-.06h0l0-.05,0,0,0,0,0,0,0,0,0,0-.05,0h0l-.07-.06h0l-.06-.05,0,0-.06,0,0,0-.06,0,0,0-.07,0h0l-.1-.06v-5.89c0-3.48-7-4.18-7-4.18v.44l-.87,0c-.12,0-.13,0-.13,0v-.4s-7,.7-7,4.18v5.89l-.1.05,0,0-.07,0,0,0-.06,0,0,0-.06,0,0,0-.06,0h0L547,390h0l-.05,0,0,0,0,0,0,0,0,0,0,0,0,0v0l0,.06h0l0,0v0l0,0v.36a.09.09,0,0,0,0,.05v0l0,.05h0l0,.06h0l0,.06h0l0,.05h0l.05.06h0a.91.91,0,0,0,.2.19h0l.08.06h0l.4.24h0l-.36,8.85H544.5v-4h-4v7h-4v-10h2v-3.58l-.68-2.29-.29-.2-.3-1.05-.08-3.73-1.1-.54,0-.55,1.27-1.28s.29.15.25,0a4,4,0,0,1,0-.58l-1.1-.08,1.27-2.41s1.18-.2,1.18-1.21,0-.62,0-.62l-1-.66-.43.43-.63-1.29s-.34-1.16-.76-1.36l-1-.46s-.93-1.05-.34-1.71,1.39-1.17,1.35-2.14a1.84,1.84,0,0,0-1.48-1.79,3.63,3.63,0,0,0-1.65.39l-.08.54-.34.35h0s-.52.84-.45,1a5.31,5.31,0,0,1,.15.83l-.93-.16a4.83,4.83,0,0,0-.71-.95l-.19-.08-1.12-2-.56-.52a6.68,6.68,0,0,0-.49-2.7l-.07-.6.29.24.19-.16-1.57-3.9-1.38-2.31.89,2.63a6.72,6.72,0,0,0-.29,1.83c.11.32.67,1.47.67,1.47l.56,3.22a5.88,5.88,0,0,0,.71,1.71,3.21,3.21,0,0,1,.49,1.44l.52,1.51.82,2.87-.07.31.22.52-.82,1.87.07.28-.48,4.18.67.12a15.4,15.4,0,0,1,.08,1.67,9.05,9.05,0,0,1-.27,1.39s0,1.39,0,2.47l-.3.28-2.54,2.74-.11,4.62h2v6h-2v5h-4v-36h-14v27h-1v14h-3v-39h-7v29h-2v-25h-10v29h-3v7h-3v-11h-7v-6h-6v14h-4V389.26l-2.06-4.76H453.5v2h-7v24h-5m184-45.29-1,0v4.22l1,0Zm-67,28.93a6.87,6.87,0,0,0,3.14-1.35l.32,9.71H558.5Zm-3,.7c.54,0,1.1,0,2-.11v7.77h-2Zm-4-.11,2,.11v7.66h-2Zm-4,9.77h.18l.36-11.27a8.76,8.76,0,0,0,2.46,1.34v8.93h-1v7h-2Zm-10.19-27.77L536.06,379l-1,0-.07-1.09.42,0,.31-1.25-.19-.23,1.4,0Zm-2.33-2,1.63,1.79h-1.52l-.19-.47-.31-.89Zm-3.43,7.7a7,7,0,0,1,.28-1.09c.11-.24.23-.62.23-.62a1.88,1.88,0,0,0,.62.5c.27.08.51-.27.51-.27l.23.66-.27,4-2,.2a5.27,5.27,0,0,0,.63-2A6.08,6.08,0,0,0,531.55,382.41Z" transform="translate(-441 -351)"/></svg>