<svg xmlns="http://www.w3.org/2000/svg" 
viewBox="0 0 871.26 81.43">
    <defs>
        <style>.cls-1{fill:none;stroke:#231f20;stroke-linecap:round;stroke-miterlimit:10;}</style>
    </defs>
    <g id="Layer_2" data-name="Layer 2">
        <g id="Layer_1-2" data-name="Layer 1">
            <path class="cls-1" d="M870.56,80.93v-8h.2V42.06H864.4V56.4h-3.46V38.08l-2.13-4.78h-7.17v1.59h-7.17V58.26h-4.78V49h-4.78V43.66h-4v-9c0-1.6-7.43,0-7.43,0V54h-4.78l.23-2.65h-2.65v-17h-7.44v5.58H804.6V55.08h-3.45V29.85c0-1.6-5.83,0-5.83,0V45.52h-3.73V24.8c0-1.33-7.44,0-7.44,0v5.84h-2.39V53.22h-2.92V41.8h-3.19V22.94h-3.18V18.69h-8.24V47.37h-3.71l-2-2.65h-6.39V27.81h-9v6.86l-2.92,2.92V48.44l-3.32,3.32-2,2V21.08c0-1.86-10.36,0-10.36,0v8.23h-1.86V57.47h-4.51V54.72c0-1.59-3.46,0-3.46,0V51.54H701.39v7h-2.12v-9h-3.45V45.25h-4.25v6.37H688.4V40.91h-8v6.73H678.3v5h-4V16.83H660.76V43.66H658.9V58h-2.65V19h-6.64V48.7H646.4V23.47h-9.56V52.15h-2.65v6.91H631V48.44h-3.14l-3.27,15.48c-1.24,0-2.48-.05-3.72-.05-.74,0-.89-.38-.82-1,.33-2.8.63-5.61,1-8.4a19.1,19.1,0,0,1,2.15-6.76c.07-.12,0-.31,0-.52l-.9-.09c.2-.79.81-1.58-.14-2.31-.66.85-.44,2.28-1.58,2.58a7,7,0,0,0-1.17-.36c-1.72-.2-3.39.42-5.19.06a3.87,3.87,0,0,0-3.74,1.25c-.09.1-.57,0-.77-.13a2.86,2.86,0,0,0-2.07-.1,9.93,9.93,0,0,1-1,.65c-.16.1-.46.17-.47.27-.06,1.13-1,.87-1.64,1.08l-2.54.81c-.62-.85-1.12-.8-1.63,0a1.53,1.53,0,0,1-.86.61c-.78.21-1.59.26-2.37.46a19.34,19.34,0,0,1-1.88.69,21,21,0,0,1-2.78,0l1.06-1.32-.23-.24c-1.42.86-2.33,2.59-4.52,2.75L591,51.21l-.29-.23-5.15,4.54-.37-.34,1.31-1.69c.51-.67,1-1.32,1.52-2,.11-.15.09-.39.14-.59-.23,0-.53,0-.66.13-1,1-1.94,2.07-2.92,3.09-.45.46-.95.87-1.42,1.3l-.21-.22c.65-.88,1.31-1.75,1.93-2.65a2,2,0,0,0,.14-.79,2.35,2.35,0,0,0-.66.37c-.8.88-1.55,1.8-2.36,2.68a3,3,0,0,1-.83.43L581,55l2-3.19-.29-.27a4.19,4.19,0,0,0-.71.52c-.74.85-1.44,1.73-2.18,2.58a4.53,4.53,0,0,1-.63.51l-.31-.22c.48-.85,1-1.7,1.45-2.56a4.35,4.35,0,0,0,.25-.91,4.4,4.4,0,0,0-.89.54,16.72,16.72,0,0,0-1.13,1.47c-.17-1.37-.77-1.94-1.85-2.1-.33,0-.61-.49-.92-.76s-.14-.59,0-.94a1,1,0,0,0-.33-.83,1.44,1.44,0,0,1-.29-2.35c.52-.48.36-1.22-.52-2.07l1.13-.12c0-.13.1-.35,0-.41-.49-.46-1-1.13-1.54-1.28-.91-.23-.82-.74-.77-1.37,0-.11-.1-.23-.15-.35h-.58v1c-1.12-.12-.66.72-.78,1.34h-1.87c.29.56.47.92.65,1.28s.37.47.36.7c0,1.71-.14,3.41-.24,5.11,0,.65-.17,1.11-1,1.18s-1.79.32-1.51,1.59a.63.63,0,0,1,0,.19c-.38,1.26-.38,1.26.41,2.14-.42,0-.77-.07-1.12-.08s-.73,0-1.16,0c.12,1.65-1.07.53-1.54,1a16.36,16.36,0,0,0-1.85,1.14c-.56.45-1.36.74-1.58,1.64l-3,.44V42.06h-6.36V56.4h-3.47V38.08l-2.12-4.78h-7.17v1.59H532.2V58.26h-4.78V49h-4.78V43.66h-4v-9c0-1.6-7.44,0-7.44,0V54h-4.78v6.2h-4l-.18,0V40.51l-1.48-3.17v-14l-1.47-3.9V14.12l-.95-.85.1-4.22V5.36L498,4.83,497.85.5h-.53l-.1,4.33-.53.53V9.05l.1,4.22-1,.85V19.4l-1.48,3.9v14l-1.47,3.17V62.34H491l-.8.11V49.53l-.93-2V38.7l-.93-2.46V32.92l-.6-.53.07-2.66V27.41l-.34-.33-.06-2.73h-.34l-.06,2.73-.33.33v2.32l.06,2.66-.6.53v3.32l-.93,2.46v8.84l-.93,2V63.28l-3.37.47V51.36h-2.66v-17h-7.43v5.58h-4.25V55.08h-3.46V29.85c0-1.6-7.43,0-7.43,0V45.52h-2.13V24.8c0-1.33-7.43,0-7.43,0v5.84h-2.39V46.92h-2.93V41.8h-3.18V22.94h-3.19V18.69h-8.23V41.36H417v-.65h-5.93v-2l-1.87-1.3v-.72h-.65V33.05h.93V32.4h.44v-.79l-1.48-1.48s0-5.74-6.39-8.2v-2l.36-.36-1.8-1.24V8.5l-2.6,2L397.87,15l2.23-1.19,0,4.23-2.2,1.51.36.36v2c-6.42,2.46-6.39,8.2-6.39,8.2l-1.48,1.48v.79h.43v.65h.94v3.69h-.65v.72l-1.87,1.3v2h-5.93v.65h-7.15V27.81h-9v6.86l-2.92,2.92v9.33h-5.31V21.08c0-1.86-10.36,0-10.36,0v8.23h-1.86V57.47h-4.51V54.72c0-1.59-3.46,0-3.46,0V51.54h-.45l-.45-10.89h0a3.72,3.72,0,0,0,.41-.24h0l.08-.06h0a1.29,1.29,0,0,0,.21-.19h0l0,0h0l0,0v0l0,0h0l0-.06h0a.08.08,0,0,1,0-.05v0l0-.05v0a.06.06,0,0,0,0,0v0a.17.17,0,0,0,0-.07.13.13,0,0,0,0-.06v0a.06.06,0,0,0,0,0V39.4s0,0,0,0v0l0-.05h0l0-.06v0l0,0,0,0s0,0,0,0l0,0a.08.08,0,0,0,0,0l0,0s0,0-.05-.05h0l-.07-.06h0l-.06,0,0,0-.05,0,0,0-.07,0,0,0-.07,0,0,0-.11,0V32.72c0-3.48-7.21-4.18-7.21-4.18h0l-.35,0-.34,0h0s-7.22.7-7.22,4.18v5.89l-.11,0,0,0-.07,0,0,0-.06,0,0,0-.06,0,0,0-.06,0h0l-.08.06h0s0,0-.05.05l0,0a.08.08,0,0,0,0,0l0,0s0,0,0,0v0l0,0v0l0,.06h0l0,.05v.36s0,0,0,0v0a.09.09,0,0,0,0,.05v0a.17.17,0,0,0,0,.05h0l0,.06h0a.1.1,0,0,0,0,0v0l0,0h0l0,0h0a1.37,1.37,0,0,0,.22.19h0l.08.06h0l.41.24h0l-.38,8.85h-2.54V45.25h-4.25v6.37h-3.17V41.78h1.7V38.2l-.63-2.29-.27-.2-.27-1.05-.08-3.73-1-.55,0-.54,1.17-1.28s.27.15.23,0a4.13,4.13,0,0,1,0-.59l-1-.07,1.17-2.41a1.31,1.31,0,0,0,1.09-1.21c0-1,0-.62,0-.62l-.94-.66-.39.42-.58-1.28s-.31-1.17-.7-1.36l-.93-.47s-.86-1.05-.31-1.71,1.28-1.16,1.24-2.14a1.79,1.79,0,0,0-1.36-1.78A3.19,3.19,0,0,0,309,15l-.07.55-.32.35v.58s-.54.82-.46,1a5.24,5.24,0,0,1,.15.82l-1-.16a4.37,4.37,0,0,0-.74-.93l-.19-.08-1.17-1.94-.58-.51a6.05,6.05,0,0,0-.51-2.64l-.08-.58.32.23.19-.16-1.63-3.81L301.47,5.5l.93,2.56a6.37,6.37,0,0,0-.31,1.79c.12.31.7,1.44.7,1.44l.58,3.15a5.48,5.48,0,0,0,.74,1.67,3,3,0,0,1,.51,1.4l.54,1.48.86,2.8-.08.31.23.51-.85,1.82.08.28-.51,4.08.7.12a12.44,12.44,0,0,1,.08,1.63,8.91,8.91,0,0,1-.27,1.36s0,1.36,0,2.41l-.31.27-2.64,2.69-.12,4.51h2.06v5.86h-2.11v5h-4V16.83H284.77V43.66h-1.86V58h-2.65V19h-6.64V48.7h-3.2V23.47h-9.57V52.15H258.2v6.91H255V48.44h-6.78V42.06h-6.36V56.4H238.4V38.08l-2.12-4.78h-7.17v1.59h-7.17V58.26h-4.78V49h-4.79V43.66h-4v-9c0-1.6-7.44,0-7.44,0V54h-4.78l.24-2.65h-2.66v-17h-7.43v5.58h-4.25V55.08h-3.45V29.85c0-1.6-5.83,0-5.83,0V45.52h-3.73V24.8c0-1.33-7.44,0-7.44,0v5.84h-2.39V53.22h-2.92V41.8h-3.19V22.94h-3.19V18.69H141.7V47.37H138l-2-2.65h-6.39V27.81h-9v6.86l-2.92,2.92V48.44l-3.32,3.32-2,2V21.08c0-1.86-10.35,0-10.35,0v8.23h-1.86V57.47H95.59V54.72c0-1.59-3.45,0-3.45,0V51.54H78.86v7H76.74v-9H73.28V45.25H69v6.37H65.86V40.91h-8v6.73H55.77v5h-4V16.83H38.23V43.66H36.37V58H33.71V19H27.07V48.7h-3.2V23.47H14.31V52.15H11.65v6.91H8.47V48.44H.5V72.93H.87v8M400.11,13.81l.07,0V18l0,0,0,0Zm-66.4,29.36a7,7,0,0,0,3.14-1.34l.32,9.71h-3.46Zm-2.67.27a17,17,0,0,0,1.71-.11v8.21H331Zm-3.27-.11c.52.06,1.08.1,1.71.11v8.1h-1.71Zm-4.49,9.54h0l.36-11a7,7,0,0,0,3.14,1.34v8.37h-1.4v7h-2.13ZM312.94,25.33l-1.24,2.25-1,0-.07-1.09.42,0,.32-1.25-.2-.23,1.4,0Zm-2.33-2.49,1.63,1.79h-1.52l-.19-.47-.31-.89ZM307.18,31a7,7,0,0,1,.28-1.09c.11-.24.23-.62.23-.62a1.88,1.88,0,0,0,.62.5c.27.08.51-.27.51-.27l.23.66-.27,4-2,.2a5.32,5.32,0,0,0,.62-2A6.08,6.08,0,0,0,307.18,31Z"/>
        </g>
    </g>
</svg>