<svg xmlns="http://www.w3.org/2000/svg" viewBox="0 0 535.14 437.08"><defs><style>.cls-1{fill:#008861;}.cls-2,.cls-8{fill:#fff;}.cls-11,.cls-2,.cls-4,.cls-5,.cls-6,.cls-7,.cls-9{stroke:#231f20;}.cls-11,.cls-2,.cls-4,.cls-5,.cls-6,.cls-9{stroke-miterlimit:10;}.cls-2,.cls-4,.cls-5{stroke-width:4px;}.cls-11,.cls-3,.cls-6,.cls-7{fill:#ac383b;}.cls-4{fill:none;}.cls-5,.cls-9{fill:#fde200;}.cls-6,.cls-7{stroke-width:1.5px;}.cls-7{stroke-linecap:round;stroke-linejoin:round;}.cls-9{stroke-width:2px;}.cls-10,.cls-13{fill:#231f20;}.cls-11{stroke-width:1.97px;}.cls-12{fill:#f4d927;}.cls-13{font-size:31.66px;font-family:Helvetica-Light, Helvetica;font-weight:300;}</style></defs><title>logo</title><g id="Layer_3" data-name="Layer 3"><path class="cls-1" d="M309,291.5A94.5,94.5,0,1,0,403.5,386,94.5,94.5,0,0,0,309,291.5Z" transform="translate(-40.04 -176.47)"/><polygon class="cls-2" points="488.14 208.53 440.14 171.53 306.88 171.53 306.88 51.28 269.88 3.28 232.88 51.28 232.88 171.53 99.63 171.53 51.63 208.53 99.63 245.53 232.88 245.53 232.88 366.79 269.88 414.79 306.88 366.79 306.88 245.53 440.14 245.53 488.14 208.53"/><polygon class="cls-3" points="282.79 171.53 282.79 20.02 269.88 3.28 255.13 22.42 255.13 171.53 282.79 171.53"/><polygon class="cls-3" points="255.13 246.53 255.13 398.04 268.04 414.79 282.79 395.64 282.79 246.53 255.13 246.53"/><path class="cls-3" d="M510.88,371.67H452q.71,7.06.71,14.33,0,6.75-.62,13.33h57.49L528.18,385Z" transform="translate(-40.04 -176.47)"/><path class="cls-3" d="M109,371.67h58.88q-.71,7.06-.71,14.33c0,4.5.22,8.94.62,13.33H110.26L91.67,385Z" transform="translate(-40.04 -176.47)"/><polygon class="cls-4" points="488.14 208.53 440.14 171.53 306.88 171.53 306.88 51.28 269.88 3.28 232.88 51.28 232.88 171.53 99.63 171.53 51.63 208.53 99.63 245.53 232.88 245.53 232.88 366.79 269.88 414.79 306.88 366.79 306.88 245.53 440.14 245.53 488.14 208.53"/><path class="cls-5" d="M309,242.29A143.71,143.71,0,1,0,452.71,386,143.71,143.71,0,0,0,309,242.29Zm0,237.46A93.75,93.75,0,1,1,402.75,386,93.75,93.75,0,0,1,309,479.75Z" transform="translate(-40.04 -176.47)"/><circle class="cls-6" cx="157.29" cy="209.53" r="6.83"/><circle class="cls-6" cx="380.86" cy="209.53" r="6.83"/><path class="cls-6" d="M233.12,316.88l-2.87.62-6.13-5.75s10.26-13.75,1.5-20.37S211,293,211,293l-9.75,9.75,1.63,1.87,2.37-.93,21.37,18.81-.74,2.25,2,1.37,6.74-7.12Zm-12.62-8.26-9.88-9.12,3.26-3.38s3-4,7.87,0S220.5,308.62,220.5,308.62Z" transform="translate(-40.04 -176.47)"/><path class="cls-7" d="M268.88,277.5l-5.13-8S257,258.38,244,265.75c0,0-11.38,7.63-5.88,19.13l3.88,7.37s7.62,13.5,20.5,5.37S268.88,277.5,268.88,277.5Zm-7,16.25c-8.31,5.25-14-3.5-14-3.5l-5.26-8.52s-3.74-6.35,3.38-12c0,0,6.75-4.37,11.12,1a89.29,89.29,0,0,1,6.38,8.63S269.12,289.17,261.88,293.75Z" transform="translate(-40.04 -176.47)"/><path class="cls-7" d="M305.58,281.73s-10.66-23.15-13.16-26.4-2.5-3.58-4.84-3.5c0,0-1.75-.83-2.83,4.5s-3.58,12.59-4.25,28.84l-2.33,2.25,1.16,1.38,8.25-1.05.34-1.83L285,284.83l.33-6.5s.34-1.16,5.42-1.91,6-.09,6-.09l2.83,5.4-2.25,2.6.84,1.75,9-1.5.58-2.5ZM293,272.17l-5.63.75-1.75-1.42,2.34-11.83,1-.17,6,10.79Z" transform="translate(-40.04 -176.47)"/><path class="cls-7" d="M339.42,255.08s-2.75-3.29-19.59-4.75l-.41,2,1.5,2.17L317,281.08l-1.08,1h-1.59L314,284.5l9.58,1.92.84-1.84-2.25-1.66,2.25-10.42,3.75-.25a17.17,17.17,0,0,1,2.66,11l-2.33,3.17.83,1.41,8.5,1.34,1-1.84-1.58-1.75s.42-8.75-3.58-14.58c0,0,8.25-2.58,8.66-8.5S339.42,255.08,339.42,255.08Zm-2.75,7.25c-2.8,7.14-10.75,5.42-10.75,5.42l-1.34-1.17,1.34-8c.68-4.08,5.33-3.08,5.33-3.08S338.33,258.08,336.67,262.33Z" transform="translate(-40.04 -176.47)"/><path class="cls-7" d="M377.5,274a8.18,8.18,0,0,1,.58,5.33c-.75,2.75.23,2.75.23,2.75l.77.59s1.67.33,3.42-3.5,1.42-3.34,1.42-3.34-2.42-6.91-8.25-9.16-14.34-5.84-21.25,6.66-3.67,17.42-3.67,17.42a13.67,13.67,0,0,0,4.83,6.67c3.67,2.58,9.92,6.33,16,.33l-1.16-1.92s-6.75,2.09-11.59-1.66-2.75-10.09-2.75-10.09L361.5,274s3.41-7.26,11.42-3.33C377.17,272.75,377.5,274,377.5,274Z" transform="translate(-40.04 -176.47)"/><polygon class="cls-7" points="342.13 135.12 351.38 127.03 360.54 137.87 352.13 145.87 348.88 145.28 347.29 146.87 353.79 154.78 356.21 152.78 355.54 150.7 376.21 132.45 379.04 132.62 380.21 131.37 373.79 123.78 371.71 125.28 371.96 127.28 364.13 134.53 354.96 124.11 362.71 116.86 364.13 116.53 365.21 117.45 367.29 115.78 360.38 108.11 358.46 109.61 358.96 112.28 339.04 130.37 335.71 129.87 333.63 131.45 340.38 139.37 342.21 137.78 342.13 135.12"/><path class="cls-6" d="M199.75,461a25.13,25.13,0,0,1,2.87,1l21.88-16.25.62-3.25,1.26-1,6.24,7.88-1,1.37-2.87-.63-21.87,17.13.12,2-1.62,1.37-6.63-8.37Z" transform="translate(-40.04 -176.47)"/><path class="cls-6" d="M299,519.66a26.35,26.35,0,0,1,2.58-1.63l.9-27.23-2.16-2.51v-1.6h10.05l.46,1.64-2.28,1.86L308.33,518l1.64,1.14.07,2.13-10.68,0Z" transform="translate(-40.04 -176.47)"/><polygon class="cls-6" points="184.46 311.53 182.84 313.66 175.65 308.28 176.96 306.28 180.05 306.66 196.21 284.41 195.59 282.28 197.21 280.59 203.46 285.03 201.84 311.03 213.09 297.13 212.09 295.16 213.71 293.28 220.59 297.91 219.34 299.66 216.84 299.53 197.21 324.66 193.84 321.91 196.96 291.66 183.84 308.66 184.46 311.53"/><polygon class="cls-6" points="335.02 324.01 336.44 326.28 328.88 331.12 327.47 329.18 328.91 326.42 313.77 303.47 311.56 303.31 310.55 301.19 316.9 296.9 340.67 307.57 331.61 292.15 329.41 292.39 328.23 290.21 334.98 285.4 336.18 287.19 335.18 289.48 351.8 316.69 348.03 318.88 320.82 305.32 332.11 323.58 335.02 324.01"/><path class="cls-7" d="M350.19,511.85s-11.92-22.52-14.59-25.63-2.7-3.44-5-3.23c0,0-1.8-.74-2.59,4.65s-2.88,12.76-2.65,29L323.13,519l1.24,1.31,8.18-1.5.23-1.85-3-.92,0-6.51s.27-1.18,5.3-2.21,6-.41,6-.41l3.12,5.23-2.1,2.72.93,1.71,8.9-2,.45-2.53ZM337.06,503l-5.57,1.05-1.83-1.31,1.68-11.95,1-.22L338.91,501Z" transform="translate(-40.04 -176.47)"/><path class="cls-6" d="M281.75,483.25a142.64,142.64,0,0,0-14.5-4.37l-1,2.24,2.37,2.82-8,25.68-2.24.88-.76,1.5,13.26,5.12s15.62,3.13,19-11.37S288.88,485.88,281.75,483.25Zm2.25,19.4c-4.07,15.26-17.5,7.6-17.5,7.6l7.83-25.13S288.07,487.38,284,502.65Z" transform="translate(-40.04 -176.47)"/><path class="cls-6" d="M398.25,449.62l1.37-1.24-5.24-4.5s-6.38,1.5-9.13,6.87S382.88,461,386.88,464s8.87,4.74,15.12-1.13,9.75,0,9.75,0,2.5,3.75-1.5,7.38-9.87,1.75-9.87,1.75-2.5.62-1.63,2.88a10.77,10.77,0,0,0,14.75-2.26c6.88-8,1.62-13,1.62-13s-5.87-9.24-13.74-3.37-9.5,4.5-11.38,3.25-2.5-4.75-.5-7.38S395.88,448.75,398.25,449.62Z" transform="translate(-40.04 -176.47)"/><path class="cls-7" d="M239.62,371.67s6.63-1.29,8,4.95c0,0,.38,2.48,2,2.55s2.13-2.17,2.13-2.17v-5.44s-3.23-4.14-12.13-4.18c-10.37-.06-13.24,7.24-13.24,7.24s-1.8,2.21-2.13,11.38c-.37,10.12,5.25,17.5,14.87,17.75s11.88-7,11.88-7l-1.62-2a11.83,11.83,0,0,1-10.13,4.58c-6.63-.45-9.13-7.46-8.63-13.83S231.62,372.71,239.62,371.67Z" transform="translate(-40.04 -176.47)"/><path class="cls-7" d="M284.92,399.83s-2.23-9.25-6.48-13.83c0,0,7.48-3.5,7.14-10.42s-9.16-7.75-9.16-7.75l-15.17-.46v3.21L263.5,372v26.58l-1.75,1.92s-.75,1.5-.42,1.75,1,.83,1,.83h8.3l1.25-2-3.25-1.83.25-9.83,3.58-1.5a20.11,20.11,0,0,1,5.58,11.41L276.17,401l.58,2.08h9l.83-2.66Zm-16.34-15.41v-9.25c0-3.67,3.92-4.17,3.92-4.17s7.75-.75,7.08,6.42S268.58,384.42,268.58,384.42Z" transform="translate(-40.04 -176.47)"/><polygon class="cls-7" points="256.4 191.43 255.71 193.03 258.21 195.03 258.21 223.03 255.71 224.53 257.38 226.62 278.04 226.62 279.88 225.45 280.29 218.87 279.04 218.28 275.63 221.95 264.13 221.95 264.13 209.53 271.71 209.53 274.54 212.03 276.13 210.95 276.13 204.2 274.79 202.45 272.46 205.12 264.04 205.12 264.04 195.62 273.13 195.45 277.04 198.7 279.13 198.7 279.13 192.28 278.38 191.53 256.4 191.43"/><polygon class="cls-7" points="291.15 191.43 290.46 193.03 292.96 195.03 292.96 223.03 290.46 224.53 292.13 226.62 312.79 226.62 314.63 225.45 315.04 218.87 313.79 218.28 310.38 221.95 298.88 221.95 298.88 209.53 306.46 209.53 309.29 212.03 310.88 210.95 310.88 204.2 309.54 202.45 307.21 205.12 298.79 205.12 298.79 195.62 307.88 195.45 311.79 198.7 313.88 198.7 313.88 192.28 313.13 191.53 291.15 191.43"/><path class="cls-7" d="M365.58,367.9v1.93l1.92,1.84V398.5l-1.92,1.67,1,2.58,8,.33,1.83-2-2.91-1.75v-8.16l5-4.5,6.91,12.66-1.83,2,1,1.75H393l1-2.66-2-.75-9.67-16.84,7.75-10.75,2.5-2-.25-2.18h-8.75l-1.5,1.18,2.09,2.59-10.59,12.41V371.67a19.48,19.48,0,0,0,2.67-2.09,11.68,11.68,0,0,0-.67-1.68Z" transform="translate(-40.04 -176.47)"/><path class="cls-8" d="M98.5,455.53s5.17,8.14,6.33,16.8,2,17.17,2,17.17-3.33,0-4.16-6.83l-.84.86s-4,16,5,25v.92s-8.16-5.25-7.33-17.92,1-14,1-14-.5-4.17-3.17-5.5l.67-1.38,3.17,2.71-3-11A12.78,12.78,0,0,1,98.5,455.53Z" transform="translate(-40.04 -176.47)"/><path class="cls-8" d="M105.5,495s7.83,8.83,5.5,28.83c0,0-.74-12.14-1.83-18.33A34.15,34.15,0,0,0,105.5,495Z" transform="translate(-40.04 -176.47)"/><path class="cls-8" d="M104.83,514.5s2.5,13.5,8,21.5c0,0-3-2-6-10.75S104.83,514.5,104.83,514.5Z" transform="translate(-40.04 -176.47)"/><path class="cls-8" d="M104.67,530.5s.76,8.83,3.8,9.17l-1,2.83s-6-4.5-5.42-8.83S104.67,530.5,104.67,530.5Z" transform="translate(-40.04 -176.47)"/><path class="cls-8" d="M98.33,441.5s2,.5,3.75,11.33,2.59,11.32,2.59,11.32h0s-3.33-5.88-3.5-11.33A35.16,35.16,0,0,0,98.33,441.5Z" transform="translate(-40.04 -176.47)"/><circle class="cls-9" cx="5.74" cy="282.94" r="4.74"/><circle class="cls-9" cx="525.22" cy="307.09" r="4.74"/><path class="cls-10" d="M108.47,599.07a1.49,1.49,0,0,1-1.33-.79c-.41-.78-3-1.88-5.21-2.41a15,15,0,0,1-9-3.43c-5-3.93-2.15-15-1.81-16.27a1.5,1.5,0,0,1,2.94.42c-.06,3.25.44,6.72,1.07,7.27,1,.56,7.79,1.08,13.42,1.23a1.5,1.5,0,0,1-.08,3c-3-.08-12.77-.43-14.88-1.66a2.43,2.43,0,0,1-.49-.37,5.79,5.79,0,0,0,1.68,4c3.8,3,7.09,2.8,7.23,2.78a2.38,2.38,0,0,1,.46,0c1.4.33,6.09,1.59,7.36,4a1.5,1.5,0,0,1-.62,2A1.45,1.45,0,0,1,108.47,599.07Z" transform="translate(-40.04 -176.47)"/><circle class="cls-9" cx="71.44" cy="425.84" r="4.74"/><circle class="cls-11" cx="71.71" cy="411" r="4.47"/><path class="cls-10" d="M108.67,436.5l3.08,11.5v16.15l-1.54-3-.88-.67L108,457.06h-1.83s7,14.27,7.83,30.11,1,17.66,1,17.66l-2-1.5.17,1.5.83,4.67s.67,11.67-.5,16.5-.5,3.71-.5,3.71l1.17,3.79v3.17l-.67,1.66.33,2.34s4.17,12.83-20,38l-2.16,2.83S81.83,575,79,574l-2.83-1s-2.17-7.17-2-7.67,0-5.5,0-5.5L73,558.17s-3.83-4-7.67-45c0,0,11.84-6.67,17-16.84s8.13-28.5,8.13-28.5l-.29-1.5A112.07,112.07,0,0,1,79,498.83S73.67,506.5,65.33,510c0,0-.59-16.33,6.91-29.5l-.41-1.41A35.6,35.6,0,0,0,66.17,492s-2.67-9.83,1.16-29.83l.17-4.34-.5-3.16,3.5-5.17-1.17-2.33,5-8.84-6.66,5.34-.67-1s-.17-5.34,2.17-8l-6.67,1.16S61.17,431,68.83,425c0,0-4-1.33-10,1.83,0,0-1-5.33,9.17-9.83,0,0,1.33-2.17-6.33-4.33l-1-1.84,9.66.84s1-3.49-3.5-7.91l9.34,2.57,4.16-11.83L80,393s-.5-7.37,8.5-7.43,8.9,4.85,8.9,4.85l-1.73,2.41.66,1.84L93,396.5l1.83,2.83,2.84-2.83,1.5,7.26,8.33-3.09,1.17.83-1.17,4.33h5.83L112,412.17a10,10,0,0,1,6.67,5.5l-5,.83,2.66,2.5-1.83,2.33,2,1.34s-6.33,2.5-6.5,3.5c0,0,5.67,5.16,6.17,9.66l.5,3.67Z" transform="translate(-40.04 -176.47)"/><path class="cls-8" d="M90,488s-16,27.6-15.83,41.71,6,15.46,6,15.46S73,539.5,76.5,525,90,488,90,488Z" transform="translate(-40.04 -176.47)"/><path class="cls-8" d="M96.33,438.83l1,1.34S91,477,91.67,485.83v-19.5L91,464.15Z" transform="translate(-40.04 -176.47)"/><path class="cls-8" d="M91.67,444.33h0l-7.34,6.5s-10.75,5.37-12.08,16.64h0s-.42-8.3,9.83-17.3S91.67,444.33,91.67,444.33Z" transform="translate(-40.04 -176.47)"/><path class="cls-8" d="M90.3,452.87H89s-3.73,6-5.07,16.18S80.23,482,80.23,482l-1.43,1.31,2.33-8.63s2-18.82,6-21.81,3.17-1.82,3.17-1.82Z" transform="translate(-40.04 -176.47)"/><path class="cls-3" d="M81.58,401.5l7.16,5.83L90,400.67l1.67,5.5,4.66-5.5v6.66L105.5,404l-2.17,6.17s7-.34,6.5,0-4.33,3.5-4.33,3.5l4.36,1.66-3,2.34,6.67,6.5h-8l3,8.16-5.14-1.16,1.34,6.5-8.34-3.34-3.5,3.34L91,432l-2.26,5-2.57-3-7.5,9.23L83.5,431.5s-5.83-.17-13.17,7.33l7.84-8.33L66.33,432s2.67-7.5,7.84-8.83c0,0-7.11-1.49-11.17.33,0,0-1.67-1.67,7-5.5l2.33-4.5,4.84,1.17L73,406.83l6.17,1.5Z" transform="translate(-40.04 -176.47)"/><path class="cls-10" d="M56.72,482a1.5,1.5,0,0,1-1.5-1.43c-.29-7,7.34-19.8,7.66-20.34a.91.91,0,0,1,.11-.16c.1-.13,10-12.73,12.92-21.7,3.17-9.88,1.83-22.75,1.11-27.83-.59-4.07.57-10.37,1.73-15.22C73.63,402.7,73,409,73,419.33c0,12.76-2.29,16-8.34,21.3-5.28,4.64-13.42,17.12-13.5,17.25a1.5,1.5,0,0,1-2.52-1.63c.34-.53,8.45-13,14-17.88,5.21-4.57,7.32-6.92,7.32-19,0-13.26,1.08-20.69,11-31.51a1.49,1.49,0,0,1,1.85-.29,1.51,1.51,0,0,1,.68,1.76c0,.14-4.47,14.25-3.53,20.83.76,5.28,2.15,18.69-1.22,29.17-3,9.21-12.42,21.37-13.36,22.56-2.11,3.54-7.39,13.54-7.18,18.59A1.5,1.5,0,0,1,56.78,482Z" transform="translate(-40.04 -176.47)"/><circle class="cls-11" cx="13.72" cy="302.63" r="4.47"/><ellipse class="cls-11" cx="48.7" cy="214.03" rx="6.08" ry="2.33"/><ellipse class="cls-11" cx="49.21" cy="222.2" rx="6.08" ry="2.33"/><ellipse class="cls-8" cx="49.21" cy="217.53" rx="6.08" ry="2.33"/><path class="cls-3" d="M97.08,476.33v.84s2.5,17.16,0,31.66a302,302,0,0,0-3.33,30.84s8.33,10.5,12.5,21.5l-13.83,18.5-15.84-7.79-1.53-5.59.7-6.29-2-1.83,3.33-1.67,9-10.17s5.5-26.16,7.67-43.33S97.08,476.33,97.08,476.33Z" transform="translate(-40.04 -176.47)"/><path class="cls-10" d="M510.55,599.07a1.49,1.49,0,0,0,1.32-.79c.42-.78,3-1.88,5.21-2.41a14.94,14.94,0,0,0,9-3.43c5-3.93,2.16-15,1.82-16.27a1.48,1.48,0,0,0-1.66-1.09,1.49,1.49,0,0,0-1.29,1.51c.07,3.25-.44,6.72-1.06,7.27-1,.56-7.79,1.08-13.42,1.23a1.5,1.5,0,0,0,.08,3c3-.08,12.77-.43,14.88-1.66a2.37,2.37,0,0,0,.48-.37,5.79,5.79,0,0,1-1.68,4c-3.8,3-7.09,2.8-7.22,2.78a2.38,2.38,0,0,0-.46,0c-1.41.33-6.1,1.59-7.36,4a1.5,1.5,0,0,0,.61,2A1.51,1.51,0,0,0,510.55,599.07Z" transform="translate(-40.04 -176.47)"/><circle class="cls-9" cx="467.5" cy="425.84" r="4.74"/><circle class="cls-11" cx="467.23" cy="411" r="4.47"/><path class="cls-10" d="M510.35,436.5,507.27,448v16.15l1.54-3,.87-.67,1.34-3.44h1.83s-7,14.27-7.83,30.11-1,17.66-1,17.66l2-1.5-.17,1.5L505,509.5s-.67,11.67.5,16.5.5,3.71.5,3.71l-1.17,3.79v3.17l.67,1.66-.34,2.34s-4.16,12.83,20,38l2.17,2.83S537.18,575,540,574l2.83-1s2.17-7.17,2-7.67,0-5.5,0-5.5l1.16-1.66s3.83-4,7.66-45c0,0-11.83-6.67-17-16.84s-8.12-28.5-8.12-28.5l.29-1.5A111.71,111.71,0,0,0,540,498.83s5.33,7.67,13.66,11.17c0,0,.59-16.33-6.91-29.5l.41-1.41A35.51,35.51,0,0,1,552.85,492s2.67-9.83-1.17-29.83l-.16-4.34.5-3.16-3.5-5.17,1.16-2.33-5-8.84,6.67,5.34.67-1s.16-5.34-2.17-8l6.67,1.16s1.33-4.83-6.34-10.83c0,0,4-1.33,10,1.83,0,0,1-5.33-9.16-9.83,0,0-1.34-2.17,6.33-4.33l1-1.84-9.67.84s-1-3.49,3.5-7.91l-9.33,2.57-4.17-11.83L539,393s.5-7.37-8.5-7.43-8.9,4.85-8.9,4.85l1.73,2.41-.67,1.84L526,396.5l-1.84,2.83-2.83-2.83-1.5,7.26-8.33-3.09-1.17.83,1.17,4.33h-5.84l1.34,6.34a10,10,0,0,0-6.67,5.5l5,.83-2.67,2.5,1.84,2.33-2,1.34s6.33,2.5,6.5,3.5c0,0-5.67,5.16-6.17,9.66l-.5,3.67Z" transform="translate(-40.04 -176.47)"/><path class="cls-8" d="M529,488s16,27.6,15.83,41.71-6,15.46-6,15.46S546,539.5,542.52,525,529,488,529,488Z" transform="translate(-40.04 -176.47)"/><path class="cls-8" d="M522.68,438.83l-1,1.34S528,477,527.35,485.83v-19.5l.67-2.18Z" transform="translate(-40.04 -176.47)"/><path class="cls-8" d="M527.35,444.33h0l7.33,6.5s10.76,5.37,12.09,16.64h0s.41-8.3-9.84-17.3S527.35,444.33,527.35,444.33Z" transform="translate(-40.04 -176.47)"/><path class="cls-8" d="M528.72,452.87H530s3.74,6,5.07,16.18S538.79,482,538.79,482l1.43,1.31-2.33-8.63s-2-18.82-6-21.81-3.17-1.82-3.17-1.82Z" transform="translate(-40.04 -176.47)"/><path class="cls-8" d="M537.43,401.5l-7.15,5.83L529,400.67l-1.67,5.5-4.67-5.5v6.66L513.52,404l2.16,6.17s-7-.34-6.5,0,4.34,3.5,4.34,3.5l-4.36,1.66,3,2.34-6.66,6.5h8l-3,8.16,5.13-1.16-1.34,6.5,8.34-3.34,3.5,3.34L528,432l2.26,5,2.57-3,7.5,9.23-4.83-11.73s5.83-.17,13.16,7.33l-7.83-8.33,11.83,1.5s-2.66-7.5-7.83-8.83c0,0,7.11-1.49,11.17.33,0,0,1.66-1.67-7-5.5l-2.34-4.5-4.83,1.17,4.17-7.84-6.17,1.5Z" transform="translate(-40.04 -176.47)"/><path class="cls-10" d="M562.3,482a1.5,1.5,0,0,0,1.5-1.43c.29-7-7.34-19.8-7.66-20.34l-.11-.16c-.1-.13-10-12.73-12.92-21.7-3.18-9.88-1.83-22.75-1.11-27.83.58-4.07-.58-10.37-1.74-15.22,5.13,7.38,5.76,13.7,5.76,24,0,12.76,2.28,16,8.34,21.3,5.28,4.64,13.42,17.12,13.5,17.25a1.5,1.5,0,0,0,2.52-1.63c-.35-.53-8.45-13-14-17.88-5.21-4.57-7.32-6.92-7.32-19,0-13.26-1.09-20.69-11-31.51a1.5,1.5,0,0,0-2.54,1.47c0,.14,4.47,14.25,3.53,20.83-.75,5.28-2.14,18.69,1.23,29.17,3,9.21,12.42,21.37,13.35,22.56,2.12,3.54,7.4,13.54,7.19,18.59a1.49,1.49,0,0,0,1.43,1.56Z" transform="translate(-40.04 -176.47)"/><circle class="cls-11" cx="529.69" cy="283.91" r="4.47"/><ellipse class="cls-12" cx="490.24" cy="214.03" rx="6.08" ry="2.33"/><ellipse class="cls-12" cx="489.73" cy="222.2" rx="6.08" ry="2.33"/><ellipse class="cls-3" cx="489.73" cy="217.53" rx="6.08" ry="2.33"/><path class="cls-8" d="M521.93,476.33v.84s-2.5,17.16,0,31.66a303.52,303.52,0,0,1,3.34,30.84s-8.34,10.5-12.5,21.5l13.83,18.5,15.83-7.79,1.53-5.59-.69-6.29,2-1.83-3.34-1.67-9-10.17s-5.5-26.16-7.66-43.33S521.93,476.33,521.93,476.33Z" transform="translate(-40.04 -176.47)"/><text class="cls-13" transform="translate(306.79 425.84)">®</text></g></svg>